:SAMPLES-PER-SECOND 30
:FRAME-RANGE 1-2643
:FULLY-SPECIFIED
:DEGREES
1239
root  -52.5312 39.3648 55.3932 -166.933 53.2363 -175.266
RightUpLeg  -7.66153 -2.49897 0.132685
RightLeg  25.8332 -7.43171 -4.12036
RightFoot  -18.3872 0.319812 7.2137
RightToes  5.38607e-012 1.2921e-014 -6.02303e-014
Spine  1.83048 1.07368 -2.62433
Spine1  5.03327 2.46861 -6.18025
HEad  -1.23376 -16.7303 10.0983
LeftShoulder1  1.10465 -0.885792 -20.1502
LeftArm  -6.10581 -2.87466 -39.8549
LeftForeArm  22.0104 5.89895 -10.9691
LeftHand  -0.0677628 4.15619 4.63553
RightShoulder  2.18467 3.9956 23.8297
RightArm  -31.1686 16.9116 44.4835
RightForeArm  51.5865 -4.86749 -0.398301
RightHand  -0.404827 -2.51016 -16.0436
LeftUpLeg  -18.1764 2.24807 5.86867
LeftLeg  12.8223 -5.16478 0.744935
LeftFoot  -4.65633 0.267021 -4.09296
LeftToes  -4.79707e-012 -5.93756e-011 -7.55542e-012
1240
root  -52.8869 39.4519 55.7223 -166.259 53.8466 -175.332
RightUpLeg  -5.55787 -4.64865 -1.2713
RightLeg  24.2923 -6.22444 -3.27842
RightFoot  -18.2093 0.34556 7.80865
RightToes  5.38607e-012 1.2921e-014 -6.02303e-014
Spine  0.745369 1.39042 -1.94359
Spine1  4.6324 2.8727 -6.60851
HEad  -1.88258 -16.2952 9.23854
LeftShoulder1  1.09594 -0.854452 -20.1385
LeftArm  -6.15212 -2.56622 -41.2761
LeftForeArm  23.1869 2.86942 -10.9095
LeftHand  -0.0884691 3.55962 4.62012
RightShoulder  2.22817 4.11462 23.9448
RightArm  -31.0501 18.2255 46.1366
RightForeArm  50.5566 -5.25412 -0.645522
RightHand  -0.448058 -2.11326 -15.6712
LeftUpLeg  -18.2942 3.51715 5.66865
LeftLeg  10.0775 -5.76606 0.866816
LeftFoot  -2.91842 0.376283 -4.87121
LeftToes  -4.79707e-012 -5.93756e-011 -7.55542e-012
1241
root  -53.2286 39.5493 56.0957 -164.917 55.3115 -174.831
RightUpLeg  -4.01608 -7.58211 -2.65022
RightLeg  22.2932 -7.04246 -3.37492
RightFoot  -16.9548 0.282556 8.10027
RightToes  5.38607e-012 1.2921e-014 -6.02303e-014
Spine  -0.35407 1.81167 -0.913513
Spine1  4.11388 3.42145 -7.25819
HEad  -2.46011 -15.5991 8.58281
LeftShoulder1  1.05212 -0.658884 -20.3456
LeftArm  -6.01262 -2.53875 -42.64
LeftForeArm  24.365 0.596217 -10.9332
LeftHand  -0.0914902 3.68675 5.15878
RightShoulder  2.24955 4.25912 23.6396
RightArm  -32.0769 19.5483 49.0461
RightForeArm  48.0077 -5.13573 -1.72593
RightHand  -0.5505 -1.18705 -15.127
LeftUpLeg  -18.297 4.32074 6.12194
LeftLeg  7.10397 -4.79906 1.01777
LeftFoot  -1.35878 0.541919 -6.10923
LeftToes  -4.79707e-012 -5.93756e-011 -7.55542e-012
1242
root  -53.5757 39.5935 56.5201 -163.255 57.2633 -173.861
RightUpLeg  -3.14631 -10.2888 -3.94156
RightLeg  20.8235 -9.5204 -4.18365
RightFoot  -14.8817 0.152888 8.20616
RightToes  5.38607e-012 1.2921e-014 -6.02303e-014
Spine  -1.17143 2.19802 0.407205
Spine1  3.5395 3.92866 -7.94326
HEad  -2.99204 -14.3655 7.63578
LeftShoulder1  1.01086 -0.457901 -20.6879
LeftArm  -6.03326 -2.54787 -43.8856
LeftForeArm  24.978 -1.07829 -10.9112
LeftHand  -0.103366 3.6054 5.75219
RightShoulder  2.24323 4.40972 22.9397
RightArm  -34.5102 20.5291 53.1938
RightForeArm  46.3504 -4.79614 -3.91245
RightHand  -0.5767 -0.653717 -14.1142
LeftUpLeg  -18.5055 5.19507 7.04061
LeftLeg  5.05364 -3.31577 0.94962
LeftFoot  -0.766429 0.795569 -8.53706
LeftToes  -4.79707e-012 -5.93756e-011 -7.55542e-012
1243
root  -53.9401 39.597 57.0343 -161.948 59.0049 -172.901
RightUpLeg  -2.44141 -13.3554 -5.34734
RightLeg  19.8353 -11.8897 -4.91648
RightFoot  -13.8938 0.0743829 7.56596
RightToes  5.38607e-012 1.2921e-014 -6.02303e-014
Spine  -1.30285 2.32432 1.29861
Spine1  2.87305 4.0472 -8.11124
HEad  -3.63796 -13.1572 7.16665
LeftShoulder1  1.02423 -0.463081 -21.0276
LeftArm  -6.23609 -2.9464 -45.0909
LeftForeArm  24.9246 -1.80083 -10.8358
LeftHand  -0.116865 3.54786 6.47585
RightShoulder  2.28556 4.62981 22.6534
RightArm  -35.9997 21.7398 56.9393
RightForeArm  45.0754 -4.4981 -5.77735
RightHand  -0.561225 -0.759143 -14.0386
LeftUpLeg  -19.0577 5.95797 7.93874
LeftLeg  4.15394 -2.07383 0.862966
LeftFoot  0.0280909 0.991629 -9.94652
LeftToes  -4.79707e-012 -5.93756e-011 -7.55542e-012
1244
root  -54.3008 39.5587 57.6219 -161.193 61.0179 -172.051
RightUpLeg  -2.11688 -14.0164 -6.70045
RightLeg  19.8747 -14.4981 -5.93197
RightFoot  -12.7529 0.000163543 7.03885
RightToes  5.38607e-012 1.2921e-014 -6.02303e-014
Spine  -1.1892 2.50245 1.94501
Spine1  2.79497 4.265 -8.31751
HEad  -4.31346 -12.5138 7.01746
LeftShoulder1  1.12088 -0.788903 -21.2402
LeftArm  -6.76119 -3.78683 -46.4755
LeftForeArm  24.8567 -1.62015 -10.6852
LeftHand  -0.118532 3.63819 6.9158
RightShoulder  2.37193 4.92141 22.6896
RightArm  -35.9384 22.3424 59.616
RightForeArm  45.4449 -4.36391 -6.48392
RightHand  -0.512107 -1.15026 -13.9515
LeftUpLeg  -19.2876 6.27021 8.64027
LeftLeg  3.58791 -0.331107 1.27837
LeftFoot  1.4014 1.14114 -10.2763
LeftToes  -4.79707e-012 -5.93756e-011 -7.55542e-012
1245
root  -54.6205 39.4855 58.2704 -160.386 63.4481 -170.961
RightUpLeg  -2.19388 -14.4319 -8.07343
RightLeg  20.272 -15.2455 -6.33804
RightFoot  -10.6935 -0.109751 6.54869
RightToes  5.38607e-012 1.2921e-014 -6.02303e-014
Spine  -1.36299 2.65535 2.30943
Spine1  3.09906 4.45624 -8.40426
HEad  -4.01726 -12.3222 7.07768
LeftShoulder1  1.12116 -0.730377 -21.6704
LeftArm  -6.66646 -5.08547 -47.5735
LeftForeArm  24.8803 -0.577266 -10.7036
LeftHand  -0.117932 3.60388 6.74529
RightShoulder  2.45788 5.07563 23.2182
RightArm  -35.7782 22.4539 61.4466
RightForeArm  47.2754 -4.24167 -6.91785
RightHand  -0.479463 -1.34697 -13.6735
LeftUpLeg  -19.3219 6.79596 9.51626
LeftLeg  3.40521 1.60035 1.67017
LeftFoot  2.59332 1.23793 -10.2392
LeftToes  -4.79707e-012 -5.93756e-011 -7.55542e-012
1246
root  -54.9001 39.3737 58.994 -159.754 65.8966 -169.962
RightUpLeg  -2.35878 -15.1432 -9.39981
RightLeg  20.5283 -15.0831 -6.35238
RightFoot  -9.37042 -0.170175 6.18272
RightToes  5.38607e-012 1.2921e-014 -6.02303e-014
Spine  -1.58994 2.6474 2.18179
Spine1  3.32928 4.40921 -8.16621
HEad  -2.47979 -13.1338 7.70712
LeftShoulder1  1.12377 -0.750146 -21.5947
LeftArm  -6.65065 -5.80609 -48.8437
LeftForeArm  25.0881 0.537164 -10.7041
LeftHand  -0.107425 3.76422 6.6
RightShoulder  2.47336 4.91188 24.0342
RightArm  -36.0648 21.5441 62.732
RightForeArm  48.7376 -4.13847 -7.28574
RightHand  -0.445026 -1.55943 -13.3651
LeftUpLeg  -19.2581 7.5445 10.539
LeftLeg  3.50688 3.30703 1.91513
LeftFoot  3.43878 1.42351 -11.1105
LeftToes  -4.79707e-012 -5.93756e-011 -7.55542e-012
1247
root  -55.129 39.2246 59.798 -159.412 68.398 -169.203
RightUpLeg  -2.58503 -15.2846 -10.4183
RightLeg  20.656 -16.2621 -6.856
RightFoot  -9.58649 -0.160013 6.18583
RightToes  5.38607e-012 1.2921e-014 -6.02303e-014
Spine  -1.92465 2.52062 1.72409
Spine1  3.60066 4.22977 -7.85208
HEad  -0.458006 -15.0429 8.78549
LeftShoulder1  1.11675 -0.751317 -21.4019
LeftArm  -6.53007 -6.15369 -49.7691
LeftForeArm  25.4999 1.475 -10.7382
LeftHand  -0.116596 3.46369 6.18663
RightShoulder  2.4784 4.71431 24.8792
RightArm  -36.6025 19.5942 63.2798
RightForeArm  49.193 -4.10395 -7.41191
RightHand  -0.43232 -1.6128 -13.157
LeftUpLeg  -18.9866 8.40466 11.6355
LeftLeg  3.68821 4.91268 2.09234
LeftFoot  4.06053 1.66541 -12.4605
LeftToes  -4.79707e-012 -5.93756e-011 -7.55542e-012
